<?xml version="1.0" encoding="UTF-8" standalone="no"?>
<!-- Created with Inkscape (http://www.inkscape.org/) -->

<svg
   xmlns:dc="http://purl.org/dc/elements/1.1/"
   xmlns:cc="http://creativecommons.org/ns#"
   xmlns:rdf="http://www.w3.org/1999/02/22-rdf-syntax-ns#"
   xmlns:svg="http://www.w3.org/2000/svg"
   xmlns="http://www.w3.org/2000/svg"
   xmlns:sodipodi="http://sodipodi.sourceforge.net/DTD/sodipodi-0.dtd"
   xmlns:inkscape="http://www.inkscape.org/namespaces/inkscape"
   width="720"
   height="180.00002"
   id="svg2"
   version="1.1"
   inkscape:version="0.48.4 r9939"
   sodipodi:docname="wait1.svg">
  <defs
     id="defs4" />
  <sodipodi:namedview
     id="base"
     pagecolor="#ffffff"
     bordercolor="#666666"
     borderopacity="1.0"
     inkscape:pageopacity="0.0"
     inkscape:pageshadow="2"
     inkscape:zoom="1.3680556"
     inkscape:cx="360.50001"
     inkscape:cy="90.499998"
     inkscape:document-units="px"
     inkscape:current-layer="layer1"
     showgrid="false"
     inkscape:window-width="1440"
     inkscape:window-height="853"
     inkscape:window-x="-4"
     inkscape:window-y="-4"
     inkscape:window-maximized="1"
     fit-margin-top="0"
     fit-margin-left="0"
     fit-margin-right="0"
     fit-margin-bottom="0" />
  <metadata
     id="metadata7">
    <rdf:RDF>
      <cc:Work
         rdf:about="">
        <dc:format>image/svg+xml</dc:format>
        <dc:type
           rdf:resource="http://purl.org/dc/dcmitype/StillImage" />
        <dc:title></dc:title>
      </cc:Work>
    </rdf:RDF>
  </metadata>
  <g
     inkscape:label="Calque 1"
     inkscape:groupmode="layer"
     id="layer1"
     transform="translate(0.50000424,-872.86218)">
    <path
       sodipodi:type="arc"
       style="fill:none;fill-opacity:1;stroke:none"
       id="path3755"
       sodipodi:cx="-917.14288"
       sodipodi:cy="452.36218"
       sodipodi:rx="197.14285"
       sodipodi:ry="197.14285"
       d="m -720.00003,452.36218 c 0,108.87899 -88.26386,197.14286 -197.14285,197.14286 -108.87902,0 -197.14282,-88.26387 -197.14282,-197.14286 0,-108.87899 88.2638,-197.14285 197.14282,-197.14285 108.87899,0 197.14285,88.26386 197.14285,197.14285"
       transform="matrix(0.45652175,0,0,0.45652175,508.19567,756.34901)" />
    <path
       transform="matrix(0.45652175,0,0,0.45652175,778.19567,756.349)"
       d="m -720.00003,452.36218 c 0,108.87899 -88.26386,197.14286 -197.14285,197.14286 -108.87902,0 -197.14282,-88.26387 -197.14282,-197.14286 0,-108.87899 88.2638,-197.14285 197.14282,-197.14285 108.87899,0 197.14285,88.26386 197.14285,197.14285 z"
       sodipodi:ry="197.14285"
       sodipodi:rx="197.14285"
       sodipodi:cy="452.36218"
       sodipodi:cx="-917.14288"
       id="path3757"
       style="fill:#000000;fill-opacity:1;stroke:none"
       sodipodi:type="arc" />
    <path
       sodipodi:type="arc"
       style="fill:#000000;stroke:none;fill-opacity:1"
       id="path3759"
       sodipodi:cx="-917.14288"
       sodipodi:cy="452.36218"
       sodipodi:rx="197.14285"
       sodipodi:ry="197.14285"
       d="m -720.00003,452.36218 c 0,108.87899 -88.26386,197.14286 -197.14285,197.14286 -108.87902,0 -197.14282,-88.26387 -197.14282,-197.14286 0,-108.87899 88.2638,-197.14285 197.14282,-197.14285 108.87899,0 197.14285,88.26386 197.14285,197.14285 z"
       transform="matrix(0.45652175,0,0,0.45652175,1048.1957,756.34901)" />
  </g>
</svg>
